<svg xmlns="http://www.w3.org/2000/svg" xmlns:xlink="http://www.w3.org/1999/xlink" x="0" y="0" width="662" height="302" style="
        width:662px;
        height:302px;
        background: #FFF;
        fill: none;
">
        
        
        <svg xmlns="http://www.w3.org/2000/svg" class="role-diagram-draw-area"><g class="shapes-region" style="stroke: black; fill: none;"><g class="composite-shape"><path class="real" d=" M290.5,150.5 L360.5,150.5 L360.5,190.5 L290.5,190.5 Z" style="stroke-width: 1px; stroke: rgb(0, 0, 0); fill: none; fill-opacity: 1;"/></g><g class="arrow-line"><path class="connection real" stroke-dasharray="" d="  M105.21,150.39 C157.9,137.07 226.41,156.95 277,166.75" style="stroke: rgb(0, 0, 0); stroke-width: 1px; fill: none; fill-opacity: 1;"/><g stroke="none" fill="#000" transform="matrix(0.9623129786416633,-0.2719443530169538,0.2719443530169538,0.9623129786416633,102,151.25)" style="stroke: none; fill: rgb(0, 0, 0); stroke-width: 1px;"><path d=" M8.93,-4.29 L0,0 L8.93,4.29 Z"/></g></g><g class="arrow-line"><path class="connection real" stroke-dasharray="" d="  M103.47,161.75 C160.86,174.06 222.07,186.86 276.04,175.3" style="stroke: rgb(0, 0, 0); stroke-width: 1px; fill: none; fill-opacity: 1;"/><g stroke="none" fill="#000" transform="matrix(-0.9747611941912221,0.22325011601095018,-0.22325011601095018,-0.9747611941912221,278.5,174.75)" style="stroke: none; fill: rgb(0, 0, 0); stroke-width: 1px;"><path d=" M8.93,-4.29 L0,0 L8.93,4.29 Z"/></g></g><g class="arrow-line"><path class="connection real" stroke-dasharray="" d="  M371.83,157.64 C410.4,143.44 514.88,137.5 549,147.25" style="stroke: rgb(0, 0, 0); stroke-width: 1px; fill: none; fill-opacity: 1;"/><g stroke="none" fill="#000" transform="matrix(0.9230760164969141,-0.3846175604001836,0.3846175604001836,0.9230760164969141,369,158.75)" style="stroke: none; fill: rgb(0, 0, 0); stroke-width: 1px;"><path d=" M8.93,-4.29 L0,0 L8.93,4.29 Z"/></g></g><g class="arrow-line"><path class="connection real" stroke-dasharray="" d="  M373,176.25 C411.71,188.5 509.96,184.9 548.7,172.99" style="stroke: rgb(0, 0, 0); stroke-width: 1px; fill: none; fill-opacity: 1;"/><g stroke="none" fill="#000" transform="matrix(-0.9473780204661342,0.32011698851774323,-0.32011698851774323,-0.9473780204661342,551.0000000000001,172.25)" style="stroke: none; fill: rgb(0, 0, 0); stroke-width: 1px;"><path d=" M8.93,-4.29 L0,0 L8.93,4.29 Z"/></g></g><g class="composite-shape"><path class="real" d=" M621.5,157.84 L621.5,183.91 C621.5,187 608.07,189.5 591.5,189.5 C574.93,189.5 561.5,187 561.5,183.91 L561.5,157.84 C561.5,154.75 574.93,152.25 591.5,152.25 C608.07,152.25 621.5,154.75 621.5,157.84 C621.5,160.92 608.07,163.43 591.5,163.43 C574.93,163.43 561.5,160.92 561.5,157.84" style="stroke-width: 1px; stroke: rgb(0, 0, 0); fill: none; fill-opacity: 1;"/></g><g class="composite-shape"><path class="real" d=" M621.5,117.84 L621.5,143.91 C621.5,147 608.07,149.5 591.5,149.5 C574.93,149.5 561.5,147 561.5,143.91 L561.5,117.84 C561.5,114.75 574.93,112.25 591.5,112.25 C608.07,112.25 621.5,114.75 621.5,117.84 C621.5,120.92 608.07,123.43 591.5,123.43 C574.93,123.43 561.5,120.92 561.5,117.84" style="stroke-width: 1px; stroke: rgb(0, 0, 0); fill: none; fill-opacity: 1;"/></g><g class="arrow-line"><path class="connection real" stroke-dasharray="" d="  M445.5,105.75 C455.5,103.75 461.5,118.75 456.5,142.75" style="stroke: rgb(0, 0, 0); stroke-width: 1px; fill: none; fill-opacity: 1;"/><g stroke="#000" transform="matrix(-0.20398349006710445,0.9789743284581284,-0.9789743284581284,-0.20398349006710445,456.49999999999994,142.75)" style="stroke: rgb(0, 0, 0); stroke-width: 1px; fill: rgb(0, 0, 0);" fill="#000"><circle cx="0" cy="0" r="3.35"/></g></g><g class="composite-shape"><path class="real" d=" M128,134.75 L225.5,134.75 L225.5,191.25 L128,191.25 Z" style="stroke-width: 1px; stroke: rgb(0, 0, 0); fill: none; fill-opacity: 1;"/></g><g class="composite-shape"><path class="real" d=" M419,131.25 L516.5,131.25 L516.5,188.25 L419,188.25 Z" style="stroke-width: 1px; stroke: rgb(0, 0, 0); fill: none; fill-opacity: 1;"/></g><g/></g><g/><g/><g/></svg>
        <svg xmlns="http://www.w3.org/2000/svg" xmlns:xlink="http://www.w3.org/1999/xlink" width="660" height="300" style="width:660px;height:300px;font-family:Asana-Math, Asana;background:#FFF;"><g><g><g><text x="303" y="162" style="white-space:pre;stroke:none;fill:rgb(0,0,0);fill-opacity:1;font-size:15px;font-family:Arial, Helvetica, sans-serif;font-weight:400;font-style:normal;dominant-baseline:text-before-edge;text-decoration:rgb(0, 0, 0);">service</text></g></g></g><g><g><g><text x="47" y="146" style="white-space:pre;stroke:none;fill:rgb(0,0,0);fill-opacity:1;font-size:15px;font-family:Arial, Helvetica, sans-serif;font-weight:400;font-style:normal;dominant-baseline:text-before-edge;text-decoration:rgb(0, 0, 0);">clients</text></g></g></g><g><g><g><text x="132" y="190.5" style="white-space:pre;stroke:none;fill:rgb(0,0,0);fill-opacity:1;font-size:15px;font-family:Arial, Helvetica, sans-serif;font-weight:400;font-style:normal;dominant-baseline:text-before-edge;text-decoration:rgb(0, 0, 0);">requests rate</text></g></g><g><g><text x="132" y="211.5" style="white-space:pre;stroke:none;fill:rgb(0,0,0);fill-opacity:1;font-size:15px;font-family:Arial, Helvetica, sans-serif;font-weight:400;font-style:normal;dominant-baseline:text-before-edge;text-decoration:rgb(0, 0, 0);">connections</text></g></g></g><g><g><g><text x="428" y="188.5" style="white-space:pre;stroke:none;fill:rgb(0,0,0);fill-opacity:1;font-size:15px;font-family:Arial, Helvetica, sans-serif;font-weight:400;font-style:normal;dominant-baseline:text-before-edge;text-decoration:rgb(0, 0, 0);">connections</text></g></g></g><g><g><g><text x="393" y="96.5" style="white-space:pre;stroke:none;fill:rgb(0,0,0);fill-opacity:1;font-size:15px;font-family:Arial, Helvetica, sans-serif;font-weight:400;font-style:normal;dominant-baseline:text-before-edge;text-decoration:rgb(0, 0, 0);">Pumba</text></g></g></g><g><g><g><text x="293.5" y="193" style="white-space:pre;stroke:none;fill:rgb(0,0,0);fill-opacity:1;font-size:15px;font-family:Arial, Helvetica, sans-serif;font-weight:400;font-style:normal;dominant-baseline:text-before-edge;text-decoration:rgb(0, 0, 0);">cpus</text></g></g><g><g><text x="293.5" y="214" style="white-space:pre;stroke:none;fill:rgb(0,0,0);fill-opacity:1;font-size:15px;font-family:Arial, Helvetica, sans-serif;font-weight:400;font-style:normal;dominant-baseline:text-before-edge;text-decoration:rgb(0, 0, 0);">memory</text></g></g><g><g><text x="293.5" y="235" style="white-space:pre;stroke:none;fill:rgb(0,0,0);fill-opacity:1;font-size:15px;font-family:Arial, Helvetica, sans-serif;font-weight:400;font-style:normal;dominant-baseline:text-before-edge;text-decoration:rgb(0, 0, 0);">worker-pool-size</text></g></g><g></g></g></svg>
</svg>
